<svg xmlns="http://www.w3.org/2000/svg" width="56" height="56" viewBox="0 0 56 56">
    <g data-name="Group 87897">
        <path data-name="Rectangle 7385" d="M16 1.4A14.6 14.6 0 0 0 1.4 16v24A14.6 14.6 0 0 0 16 54.6h24A14.6 14.6 0 0 0 54.6 40V16A14.6 14.6 0 0 0 40 1.4H16M16 0h24a16 16 0 0 1 16 16v24a16 16 0 0 1-16 16H16A16 16 0 0 1 0 40V16A16 16 0 0 1 16 0z" style="opacity:.8;fill:#7e7ea9"/>
        <g data-name="Group 87856" transform="translate(14.999 18)">
            <path data-name="Path 72149" d="m188.056 285.2.534 1.407a16.134 16.134 0 0 0-3.9 2.01 26.248 26.248 0 0 1 14.245 0 15.251 15.251 0 0 0-3.891-2l.535-1.425c.472.192.933.365 1.381.564a12.776 12.776 0 0 1 4.133 2.673 5.739 5.739 0 0 1 1.012 1.611 25.555 25.555 0 0 1 2.125 6.675c.285 1.841.515 3.689.76 5.536a.558.558 0 0 1-.094.346 6.988 6.988 0 0 1-3.32 2.633 10.989 10.989 0 0 1-4.221.766.413.413 0 0 1-.276-.167q-.647-.89-1.269-1.8a.266.266 0 0 0-.336-.125 15.69 15.69 0 0 1-7.315 0 .267.267 0 0 0-.335.129q-.628.9-1.275 1.793a.39.39 0 0 1-.251.166 10.136 10.136 0 0 1-5.767-1.621 6.346 6.346 0 0 1-1.786-1.749.625.625 0 0 1-.1-.37 48.386 48.386 0 0 1 .865-6.176 22.544 22.544 0 0 1 2.632-7.154 4.971 4.971 0 0 1 1.164-1.185 16.407 16.407 0 0 1 4.75-2.537zm9.18 18.181c.244.347.46.669.694.977a.334.334 0 0 0 .251.112 11.294 11.294 0 0 0 1.2-.151 7.138 7.138 0 0 0 3.847-2.087.527.527 0 0 0 .16-.49c-.123-.86-.225-1.723-.329-2.585a28.023 28.023 0 0 0-1.818-7.251c-.423-1.042-.414-1.042-1.5-1.423a24.952 24.952 0 0 0-5.841-1.241 16.132 16.132 0 0 0-4.082.068 62.769 62.769 0 0 0-6.512 1.465 1.035 1.035 0 0 0-.77.686 35.278 35.278 0 0 0-2.3 10.388.387.387 0 0 0 .084.27 7.279 7.279 0 0 0 5.168 2.357.26.26 0 0 0 .2-.076c.245-.328.477-.664.712-1-.543-.244-1.072-.462-1.581-.717s-.992-.545-1.5-.828l.846-1.236a14.394 14.394 0 0 0 15.327 0l.832 1.216a15.743 15.743 0 0 1-3.088 1.543z" transform="translate(-178.644 -285.184)" style="fill:#7e7ea9"/>
            <path data-name="Path 72149 - Outline" d="m195.438 284.855.238.1.444.178c.326.129.634.251.944.39a12.412 12.412 0 0 1 4.211 2.728 6 6 0 0 1 1.059 1.681 25.489 25.489 0 0 1 2.144 6.74c.226 1.46.421 2.949.609 4.388q.075.577.152 1.153a.81.81 0 0 1-.132.515 7.18 7.18 0 0 1-3.434 2.727 11.171 11.171 0 0 1-4.314.784.65.65 0 0 1-.48-.27c-.4-.555-.819-1.144-1.273-1.8a.3.3 0 0 0-.025-.032.3.3 0 0 0-.048.008 15.94 15.94 0 0 1-7.43 0 .287.287 0 0 0-.044-.008.33.33 0 0 0-.028.036c-.45.646-.868 1.234-1.278 1.8a.63.63 0 0 1-.453.269 10.332 10.332 0 0 1-5.907-1.664 6.541 6.541 0 0 1-1.854-1.819.874.874 0 0 1-.145-.529 49.141 49.141 0 0 1 .87-6.208 23.151 23.151 0 0 1 2.664-7.232 5.221 5.221 0 0 1 1.22-1.249 16.472 16.472 0 0 1 4.82-2.576l.231-.084.71 1.871-.234.088a19.035 19.035 0 0 0-2.566 1.16 26.293 26.293 0 0 1 11.436 0 17.3 17.3 0 0 0-2.584-1.164l-.237-.087zm1.93 20.882a10.68 10.68 0 0 0 4.116-.747 6.7 6.7 0 0 0 3.205-2.538.326.326 0 0 0 .055-.176l-.152-1.154a190.491 190.491 0 0 0-.608-4.377 25.009 25.009 0 0 0-2.105-6.61 5.542 5.542 0 0 0-.964-1.541 12.742 12.742 0 0 0-4.054-2.618c-.3-.134-.6-.254-.926-.382l-.21-.083-.357.951a15.047 15.047 0 0 1 3.718 1.948l-.215.442a26 26 0 0 0-14.111 0l-.214-.443a15.912 15.912 0 0 1 3.721-1.953l-.358-.942a15.718 15.718 0 0 0-4.447 2.411 4.809 4.809 0 0 0-1.107 1.12 22.687 22.687 0 0 0-2.6 7.076 48.672 48.672 0 0 0-.861 6.144.381.381 0 0 0 .063.21 6.053 6.053 0 0 0 1.717 1.68 9.838 9.838 0 0 0 5.607 1.579.263.263 0 0 0 .069-.063c.408-.56.824-1.145 1.272-1.789a.511.511 0 0 1 .432-.251.716.716 0 0 1 .165.021 15.44 15.44 0 0 0 7.2 0 .736.736 0 0 1 .17-.022.5.5 0 0 1 .43.249c.451.654.865 1.24 1.265 1.791a.231.231 0 0 0 .084.067zm-5.335-16.847c.605 0 1.224.032 1.89.1a25.065 25.065 0 0 1 5.9 1.254c1.137.4 1.2.457 1.636 1.533l.013.032a28.085 28.085 0 0 1 1.835 7.315l.026.22c.093.775.189 1.576.3 2.36a.774.774 0 0 1-.227.7 7.413 7.413 0 0 1-3.978 2.16 11.1 11.1 0 0 1-1.18.15H198.165a.587.587 0 0 1-.435-.211c-.175-.23-.337-.464-.509-.711l-.191-.274-.184-.263.3-.115a15.8 15.8 0 0 0 2.815-1.383l-.557-.814a14.585 14.585 0 0 1-15.174 0l-.562.821.226.128c.351.2.682.388 1.027.561s.7.329 1.075.493l.5.22.277.125-.176.248-.172.244c-.175.249-.357.507-.544.758a.5.5 0 0 1-.411.176 7.556 7.556 0 0 1-5.337-2.438.635.635 0 0 1-.148-.462 35.921 35.921 0 0 1 2.319-10.461 1.289 1.289 0 0 1 .937-.832 63.339 63.339 0 0 1 6.538-1.47 14.56 14.56 0 0 1 2.254-.164zm6.133 15.327h.037a10.723 10.723 0 0 0 1.127-.143 6.922 6.922 0 0 0 3.716-2.015.283.283 0 0 0 .094-.282c-.113-.79-.21-1.594-.3-2.371l-.026-.22a27.593 27.593 0 0 0-1.8-7.187l-.013-.032a2.532 2.532 0 0 0-.434-.845 2.835 2.835 0 0 0-.9-.405 24.573 24.573 0 0 0-5.783-1.228c-.65-.064-1.252-.1-1.841-.1a14.064 14.064 0 0 0-2.178.161 62.931 62.931 0 0 0-6.486 1.459.788.788 0 0 0-.6.54 35.454 35.454 0 0 0-2.283 10.316.156.156 0 0 0 .021.079 6.98 6.98 0 0 0 4.992 2.274c.175-.236.347-.48.514-.717l-.215-.094c-.38-.167-.739-.324-1.1-.5s-.709-.379-1.05-.573a39.822 39.822 0 0 0-.461-.26l-.24-.133 1.131-1.654.2.116a14.145 14.145 0 0 0 15.078 0l.2-.115 1.106 1.616-.213.14a15.708 15.708 0 0 1-2.828 1.454l.01.015c.167.241.325.469.492.688a.134.134 0 0 0 .034.016z" transform="translate(-178.644 -285.184)" style="fill:#7e7ea9"/>
            <circle data-name="Ellipse 706" cx="1.797" cy="1.797" r="1.797" transform="translate(6.955 8.604)" style="fill:#7e7ea9"/>
            <circle data-name="Ellipse 707" cx="1.797" cy="1.797" r="1.797" transform="translate(15.072 8.604)" style="fill:#7e7ea9"/>
        </g>
    </g>
</svg>
