<svg xmlns="http://www.w3.org/2000/svg" width="172.7" height="21.5" viewBox="0 0 172.7 21.5">
    <path d="M17.92-.264H6.036v-4.777H17.5v-3.72H6.036v-4.868H17.92V-17.5H2.075V3.667H17.92zm10.463-7.892A4.254 4.254 0 0 1 32.707-3.8 4.226 4.226 0 0 1 28.383.583 4.19 4.19 0 0 1 24.15-3.8a4.113 4.113 0 0 1 4.233-4.356zm4.566-9.314v8.255c-.877-1.542-3.326-2.389-4.9-2.389-4.354 0-7.59 2.661-7.59 7.8 0 4.9 3.3 7.8 7.681 7.8a5.425 5.425 0 0 0 4.808-2.389l.242 2.056h3.447V-17.47zm7.439 6.229v7.832c0 4.627 2.6 7.318 6.169 7.318a6.644 6.644 0 0 0 5.05-2.238l.242 2.029h3.3v-14.941h-3.663v7.62a3.922 3.922 0 0 1-3.81 4.174c-2.359 0-3.6-1.724-3.6-3.992v-7.8zM82.42 3.667v-8.95a6.009 6.009 0 0 0-6.259-6.29 5.772 5.772 0 0 0-5.534 3.689 5.493 5.493 0 0 0-5.534-3.689 5.261 5.261 0 0 0-4.868 2.782l-.03-2.48H58.8V3.667h1.482v-8.86a4.67 4.67 0 0 1 4.778-4.959 4.693 4.693 0 0 1 4.808 4.959v8.86h1.482v-8.86a4.718 4.718 0 0 1 4.808-4.989 4.62 4.62 0 0 1 4.778 4.9v8.949zm10.916.212a8.212 8.212 0 0 0 6.441-2.873L98.719.16a7.026 7.026 0 0 1-5.383 2.268 5.877 5.877 0 0 1-6.078-5.534h13.456c.575-5.836-3.175-8.406-7.378-8.406A7.51 7.51 0 0 0 85.747-3.8a7.326 7.326 0 0 0 7.59 7.679zm-6.077-8.285a5.971 5.971 0 0 1 6.078-5.745c3.6 0 6.018 2.056 6.048 5.745zm17.3-6.864V3.667h1.482v-8.315a5.191 5.191 0 0 1 5.231-5.443c3.236-.03 5.322 1.784 5.322 5.171v8.587h1.482v-8.618c0-4.143-2.752-6.592-6.743-6.592a5.943 5.943 0 0 0-5.322 2.933v-2.661zm18.718-4.354v4.354H120.1v1.24h3.175v9.1c0 2.933 1.028 4.808 4.2 4.808a6.53 6.53 0 0 0 2.812-.756l-.514-1.21a5.541 5.541 0 0 1-2.3.6c-2.328 0-2.752-1.421-2.752-3.447v-9.1h5.08v-1.24h-5.08v-4.506zm16.843 19.5a7.3 7.3 0 0 0 7.59-7.65 7.4 7.4 0 0 0-7.59-7.771 7.4 7.4 0 0 0-7.59 7.771 7.3 7.3 0 0 0 7.586 7.653zm0-1.451a5.9 5.9 0 0 1-6.139-6.2 6.055 6.055 0 0 1 6.139-6.38 6.055 6.055 0 0 1 6.139 6.38 5.9 5.9 0 0 1-6.143 6.203zm11.007-13.7V3.667h1.482v-8.708a4.962 4.962 0 0 1 4.929-4.989 4.8 4.8 0 0 1 2.54.7l.665-1.21a5.832 5.832 0 0 0-3.205-.877 5.256 5.256 0 0 0-4.959 2.812l-.06-2.661zm23.012 1.754a7.828 7.828 0 0 0-5.564-2c-3.024-.03-5.957 1.24-5.927 4.173.03 2.994 2.9 3.538 5.806 4.022 2.449.393 4.929.816 4.868 2.963-.091 2.359-2.842 2.842-4.657 2.842a6.63 6.63 0 0 1-5.473-2.54L162.1.916c1.3 2 3.9 2.994 6.532 2.994s6.048-.877 6.139-4.173c.151-3.477-3.508-3.931-6.169-4.385-1.875-.333-4.475-.726-4.536-2.722-.06-1.905 2.177-2.782 4.506-2.752a6.387 6.387 0 0 1 4.657 1.572z" transform="translate(-2.075 17.5)" style="fill:#333360"/>
</svg>
