<svg xmlns="http://www.w3.org/2000/svg" width="20.829" height="19.891"><defs><clipPath id="a"><path d="M0 0h20.829v19.891H0z" data-name="Rectangle 16" style="fill:#f7ae39"/></clipPath></defs><g data-name="Group 2928" style="clip-path:url(#a)"><path d="m3.8 19.7.062-.349.924-4.94.336-1.782a.128.128 0 0 0-.042-.128l-5-5.015A.468.468 0 0 0 0 7.437l.019-.03.519-.069L3.127 7l2.565-.333c.479-.062.957-.126 1.436-.186a.146.146 0 0 0 .127-.091Q8.86 3.254 10.468.118l.06-.118.049.1q1.515 3.19 3.023 6.378a.167.167 0 0 0 .142.107q1.655.261 3.309.528l3.292.53.463.073.019.028a.447.447 0 0 0-.074.047l-5.133 4.852a.174.174 0 0 0-.061.175q.366 2.313.726 4.628l.375 2.4v.046l-.089-.046q-3.1-1.687-6.191-3.375a.188.188 0 0 0-.2 0q-3.125 1.588-6.252 3.17L3.8 19.7" data-name="Path 24679" style="fill:#f7ae39" transform="translate(0 -.003)"/></g></svg>