<svg xmlns="http://www.w3.org/2000/svg" width="29.823" height="39.778" viewBox="0 0 29.823 39.778">
    <path data-name="Path 71737" d="M183.8 267.324c0-1.022.009-1.99 0-2.958a11.649 11.649 0 0 1 .81-4.59 11.39 11.39 0 0 1 6.492-6.517 11.2 11.2 0 0 1 8.656.023 11.363 11.363 0 0 1 5.9 5.366 11.563 11.563 0 0 1 1.326 5.6c-.007 1.007 0 2.014 0 3.049.14.011.251.026.362.027h1.98a.874.874 0 0 1 .977.986v20.34a3.236 3.236 0 0 1-1.888 3.169 3.694 3.694 0 0 1-1.532.339q-11.49.031-22.98.011a3.3 3.3 0 0 1-3.417-3.4q-.016-10.229 0-20.457c0-.672.327-.985 1.012-.989.749-.002 1.502.001 2.302.001zm18.212-.018c0-.948.018-1.854-.006-2.759a10.045 10.045 0 0 0-.155-1.926 6.6 6.6 0 0 0-12.971.346c-.143 1.149-.079 2.323-.106 3.485-.007.28 0 .56 0 .854zm-6.623 18.245c.5 0 1.009.011 1.513 0a.883.883 0 0 0 .955-1.107c-.16-1.426-.324-2.851-.469-4.278a.528.528 0 0 1 .155-.385 3.258 3.258 0 0 0 1.125-2.874 3.3 3.3 0 0 0-3.982-2.869 3.317 3.317 0 0 0-1.448 5.739.528.528 0 0 1 .161.382 274.47 274.47 0 0 1-.466 4.239c-.086.742.239 1.139.981 1.154.493.007.986 0 1.476-.001z" transform="translate(-180.481 -252.399)" style="fill:#292960"/>
</svg>
