<svg xmlns="http://www.w3.org/2000/svg" width="142.779" height="17.775" viewBox="0 0 142.779 17.775">
    <path d="M15.175-3.25H5.35V-7.2h9.475v-3.075H5.35V-14.3h9.825v-3.2h-13.1V0h13.1zm8.65-6.525a3.517 3.517 0 0 1 3.575 3.6 3.494 3.494 0 0 1-3.575 3.625 3.464 3.464 0 0 1-3.5-3.625 3.4 3.4 0 0 1 3.5-3.6zm3.775-7.7v6.825c-.725-1.275-2.75-1.975-4.05-1.975-3.6 0-6.275 2.2-6.275 6.45a6.049 6.049 0 0 0 6.35 6.45A4.485 4.485 0 0 0 27.6-1.7l.2 1.7h2.85v-17.475zm6.15 5.15v6.475c0 3.825 2.15 6.05 5.1 6.05a5.493 5.493 0 0 0 4.175-1.85l.2 1.675h2.725v-12.35h-3.025v6.3a3.242 3.242 0 0 1-3.15 3.45c-1.95 0-2.975-1.425-2.975-3.3v-6.45zM68.5 0v-7.4a4.968 4.968 0 0 0-5.175-5.2 4.772 4.772 0 0 0-4.575 3.05 4.541 4.541 0 0 0-4.575-3.05 4.35 4.35 0 0 0-4.025 2.3l-.025-2.05h-1.15V0H50.2v-7.325a3.861 3.861 0 0 1 3.95-4.1 3.88 3.88 0 0 1 3.975 4.1V0h1.225v-7.325a3.9 3.9 0 0 1 3.975-4.125 3.82 3.82 0 0 1 3.95 4.05V0zm9.025.175A6.789 6.789 0 0 0 82.85-2.2l-.875-.7a5.808 5.808 0 0 1-4.45 1.875A4.859 4.859 0 0 1 72.5-5.6h11.125c.475-4.825-2.625-6.95-6.1-6.95a6.209 6.209 0 0 0-6.275 6.375 6.057 6.057 0 0 0 6.275 6.35zM72.5-6.675a4.936 4.936 0 0 1 5.025-4.75c2.975 0 4.975 1.7 5 4.75zm14.3-5.675V0h1.225v-6.875a4.292 4.292 0 0 1 4.325-4.5c2.675-.025 4.4 1.475 4.4 4.275V0h1.225v-7.125c0-3.425-2.275-5.45-5.575-5.45A4.914 4.914 0 0 0 88-10.15v-2.2zm15.475-3.6v3.6H99.65v1.025h2.625V-3.8c0 2.425.85 3.975 3.475 3.975a5.4 5.4 0 0 0 2.325-.625l-.425-1a4.581 4.581 0 0 1-1.9.5c-1.925 0-2.275-1.175-2.275-2.85v-7.525h4.2v-1.025h-4.2v-3.725zM116.2.175a6.036 6.036 0 0 0 6.275-6.325 6.119 6.119 0 0 0-6.275-6.425 6.119 6.119 0 0 0-6.275 6.425A6.036 6.036 0 0 0 116.2.175zm0-1.2a4.881 4.881 0 0 1-5.075-5.125 5.006 5.006 0 0 1 5.075-5.275 5.006 5.006 0 0 1 5.075 5.275 4.881 4.881 0 0 1-5.075 5.125zm9.1-11.325V0h1.225v-7.2a4.1 4.1 0 0 1 4.075-4.125 3.971 3.971 0 0 1 2.1.575l.55-1a4.822 4.822 0 0 0-2.65-.725 4.345 4.345 0 0 0-4.1 2.325l-.05-2.2zm19.025 1.45a6.472 6.472 0 0 0-4.6-1.65c-2.5-.025-4.925 1.025-4.9 3.45.025 2.475 2.4 2.925 4.8 3.325 2.025.325 4.075.675 4.025 2.45-.075 1.95-2.35 2.35-3.85 2.35a5.481 5.481 0 0 1-4.525-2.1l-.9.8a6.365 6.365 0 0 0 5.4 2.475c2.175 0 5-.725 5.075-3.45.125-2.875-2.9-3.25-5.1-3.625-1.55-.275-3.7-.6-3.75-2.25-.05-1.575 1.8-2.3 3.725-2.275a5.28 5.28 0 0 1 3.85 1.3z" transform="translate(-2.075 17.5)" style="fill:#3b3b58"/>
</svg>
