<svg xmlns="http://www.w3.org/2000/svg" width="14" height="14" viewBox="0 0 14 14">
    <g data-name="Group 87941">
        <g data-name="Path 72108" style="fill:none">
            <path d="M7 0a7 7 0 0 1 7 7v7H7A7 7 0 0 1 7 0z" style="stroke:none"/>
            <path d="M7 1.3A5.706 5.706 0 0 0 1.3 7c0 3.143 2.557 5.7 5.7 5.7h5.7V7c0-3.143-2.557-5.7-5.7-5.7M7 0a7 7 0 0 1 7 7v7H7A7 7 0 0 1 7 0z" style="fill:#7e7ea9;stroke:none"/>
        </g>
        <path data-name="Path 72109" d="M.314.491h4.24" transform="translate(4.813 6.997)" style="fill:#7e7ea9;stroke:#7e7ea9;stroke-width:1.2px"/>
    </g>
</svg>
