<svg xmlns="http://www.w3.org/2000/svg" width="123.367" height="22.068" viewBox="0 0 123.367 22.068">
    <g data-name="Group 54711">
        <path style="fill:#0ca88a" d="M0 0h22.068v22.068H0z"/>
        <path data-name="Rectangle 6018" transform="translate(25.325)" style="fill:#0ca88a" d="M0 0h22.068v22.068H0z"/>
        <path data-name="Rectangle 6019" transform="translate(50.65)" style="fill:#0ca88a" d="M0 0h22.068v22.068H0z"/>
        <path data-name="Rectangle 6020" transform="translate(75.974)" style="fill:#0ca88a" d="M0 0h22.068v22.068H0z"/>
        <path data-name="Rectangle 6021" transform="translate(112.333)" style="fill:#0ca88a" d="M0 0h11.034v22.068H0z"/>
        <path data-name="Rectangle 6022" transform="translate(101.299)" style="fill:#0ca88a" d="M0 0h11.034v22.068H0z"/>
        <path d="m22.117 27.339 3.353-.85 1.4 4.318zm7.717-5.581h-5.9L22.117 16.2 20.3 21.758h-5.9l4.777 3.442-1.814 5.558 4.777-3.445 2.94-2.113 4.754-3.445z" transform="translate(-11.093 -12.46)" style="fill:#fff"/>
        <path data-name="Path 71565" d="m126.117 27.339 3.353-.85 1.4 4.318zm7.717-5.581h-5.9l-1.817-5.558-1.817 5.558h-5.9l4.777 3.445-1.814 5.558 4.777-3.445 2.94-2.113 4.754-3.445z" transform="translate(-89.789 -12.46)" style="fill:#fff"/>
        <path data-name="Path 71566" d="m230.117 27.339 3.353-.85 1.4 4.318zm7.717-5.581h-5.9l-1.817-5.558-1.817 5.558h-5.9l4.777 3.445-1.814 5.558 4.777-3.445 2.94-2.113 4.754-3.445z" transform="translate(-168.485 -12.46)" style="fill:#fff"/>
        <path data-name="Path 71567" d="m334.117 27.339 3.353-.85 1.4 4.318zm7.717-5.581h-5.9l-1.817-5.558-1.817 5.558h-5.9l4.777 3.445-1.814 5.558 4.777-3.445 2.94-2.113 4.754-3.445z" transform="translate(-247.181 -12.46)" style="fill:#fff"/>
        <path data-name="Path 71568" d="m438.117 27.339 3.353-.85 1.4 4.318zm7.717-5.581h-5.9l-1.817-5.558-1.817 5.558h-5.9l4.777 3.445-1.814 5.558 4.777-3.445 2.94-2.113 4.754-3.445z" transform="translate(-325.877 -12.46)" style="fill:#fff"/>
    </g>
</svg>
