<svg xmlns="http://www.w3.org/2000/svg" width="61" height="45.082"><g data-name="Group 87646"><g data-name="Group 54615" transform="translate(1)"><circle cx="2.5" cy="2.5" r="2.5" data-name="Ellipse 549" style="opacity:.441;fill:#603ade" transform="translate(55 9.282)"/><circle cx="1.5" cy="1.5" r="1.5" data-name="Ellipse 552" style="opacity:.441;fill:#603ade" transform="translate(-1 27.921)"/><path d="M3.858.785a.6.6 0 0 1 1.009 0l3.264 5.077a.6.6 0 0 1-.5.924H1.1a.6.6 0 0 1-.5-.924z" data-name="Polygon 37" style="fill:#17b193;opacity:.452" transform="rotate(-95 5.57 3.435)"/><path d="M1.915.814a.6.6 0 0 1 1.018 0l1.34 2.146a.6.6 0 0 1-.509.918H1.083a.6.6 0 0 1-.509-.918z" data-name="Polygon 38" style="fill:#17b193;opacity:.452" transform="rotate(-95 46.224 -.888)"/></g></g><g data-name="Group 87546"><path d="M4.215 0h.8a.6.6 0 0 1 .6.6v7.228a.6.6 0 0 1-.6.6h-.8a4.215 4.215 0 0 1 0-8.43z" data-name="Path 71987" style="opacity:.7;fill:#06c491" transform="translate(28.785 35.252)"/><path d="M.832 0H2.81a6.323 6.323 0 0 1 0 12.645H.832A.832.832 0 0 1 0 11.813V.832A.832.832 0 0 1 .832 0z" data-name="Path 71988" style="opacity:.7;fill:#06c491" transform="translate(46.348 19.094)"/><path d="M6.323 0H8.3a.832.832 0 0 1 .832.832v10.981a.832.832 0 0 1-.832.832H6.323A6.323 6.323 0 0 1 6.323 0z" data-name="Path 71989" style="opacity:.7;fill:#06c491" transform="translate(10.52 19.094)"/><path d="M32.571 12.054a11.979 11.979 0 0 0-3.63-7.541A12.562 12.562 0 0 0 20 .81V-2a15.471 15.471 0 0 1 14.24 9.439 16.06 16.06 0 0 1 1.16 4.615z" data-name="Path 71986" style="opacity:.7;fill:#603ade" transform="translate(13 5.639)"/><path d="M22.826 12.054a11.979 11.979 0 0 1 3.63-7.541A12.562 12.562 0 0 1 35.4.81V-2a15.471 15.471 0 0 0-14.24 9.439A16.06 16.06 0 0 0 20 12.054z" data-name="Path 71986" style="opacity:.7;fill:#603ade" transform="translate(-2.397 5.639)"/><path d="M7553.5 23829.836a.5.5 0 0 1-.5-.5v-6.021a.5.5 0 0 1 .5-.5h2.307a3.511 3.511 0 0 1 3.22 2.1h1.7a4.922 4.922 0 0 0 4.916-4.916h2.812a7.735 7.735 0 0 1-7.728 7.729h-1.7a3.517 3.517 0 0 1-3.221 2.107z" data-name="Path 71990" style="opacity:.7;fill:#603ade" transform="translate(-7520 -23786.857)"/><path d="M2.108 0h4.215A2.108 2.108 0 0 1 8.43 2.108v11.24a2.108 2.108 0 0 1-2.108 2.108H2.108A2.108 2.108 0 0 1 0 13.348V2.108A2.108 2.108 0 0 1 2.108 0z" data-name="Path 71991" style="opacity:.7;fill:#603ade" transform="translate(42.835 17.689)"/><path d="M2.108 0h4.215A2.108 2.108 0 0 1 8.43 2.108v11.24a2.108 2.108 0 0 1-2.108 2.108H2.108A2.108 2.108 0 0 1 0 13.348V2.108A2.108 2.108 0 0 1 2.108 0z" data-name="Path 71992" style="opacity:.7;fill:#603ade" transform="translate(14.735 17.689)"/></g></svg>