<svg xmlns="http://www.w3.org/2000/svg" width="151.631" height="23.393" data-name="Tech nation"><g data-name="Group 54718"><g data-name="tech-nation-header-logo-cropped (1)"><g data-name="Group 11254"><path d="M200.524 34.374H197V31.8h9.82v2.574h-3.57v10.678h-2.727z" data-name="Path 25946" style="fill:#3a3a69" transform="translate(-167.951 -26.285)"/><path d="M271.7 31.8h8.242v2.574H274.4V37.1h4.428v2.574H274.4v2.8h5.546v2.574H271.7z" data-name="Path 25947" style="fill:#3a3a69" transform="translate(-231.207 -26.285)"/><path d="M339.348 30.3a6.832 6.832 0 0 1 6.128 3.524l-2.359 1.3a4.244 4.244 0 1 0 0 4.045l2.359 1.3a6.9 6.9 0 1 1-6.128-10.169z" data-name="Path 25948" style="fill:#3a3a69" transform="translate(-282.692 -25.015)"/><path d="M429.7 31.8h2.712v5.286h5.745V31.8h2.712v13.252h-2.712v-5.393h-5.745v5.393H429.7z" data-name="Path 25949" style="fill:#3a3a69" transform="translate(-365 -26.285)"/><g data-name="Group 54714"><path d="m558.714 45.052-6.8-8.641v8.641H549.2V31.8h2.329l6.787 8.641V31.8h2.712v13.252z" data-name="Path 25950" style="fill:#3a3a69" transform="translate(-466.48 -26.514)"/><path d="M639.515 31.8h2.405l5.73 13.252h-2.834l-1.287-3.018h-5.638l-1.291 3.018h-2.8zm3.018 7.859-1.823-4.305-1.839 4.305z" data-name="Path 25951" style="fill:#3a3a69" transform="translate(-538.119 -26.514)"/><path d="M719.624 34.374H716.1V31.8h9.82v2.574h-3.57v10.678h-2.727z" data-name="Path 25952" style="fill:#3a3a69" transform="translate(-607.81 -26.514)"/><path d="M790.8 31.8h2.712v13.252H790.8z" data-name="Path 25953" style="fill:#3a3a69" transform="translate(-671.066 -26.514)"/><path d="M827.248 44.1a6.848 6.848 0 1 1 6.848-6.848 6.846 6.846 0 0 1-6.848 6.848zm0-2.62a4.246 4.246 0 1 0-4.121-4.244 4.169 4.169 0 0 0 4.121 4.241z" data-name="Path 25954" style="fill:#3a3a69" transform="translate(-696.131 -25.329)"/><path d="m931.3 45.052-6.787-8.641v8.641H921.8V31.8h2.329l6.787 8.641V31.8h2.712v13.252z" data-name="Path 25955" style="fill:#3a3a69" transform="translate(-781.996 -26.514)"/></g></g></g><path d="M23.33 12.883a9.9 9.9 0 0 0 .062-1.187 9.9 9.9 0 0 0-.062-1.187h-5.653l5.216-2.171a12.319 12.319 0 0 0-.906-2.2l-5.215 2.17 4-4a11.479 11.479 0 0 0-1.687-1.687l-4 4 2.171-5.216A10.884 10.884 0 0 0 15.054.5l-2.171 5.215V.062A9.9 9.9 0 0 0 11.7 0a9.9 9.9 0 0 0-1.19.062v5.653L8.355.484a12.319 12.319 0 0 0-2.2.906l2.168 5.216-4-3.982A11.479 11.479 0 0 0 2.639 4.31l4 4-5.234-2.173A10.884 10.884 0 0 0 .5 8.339l5.215 2.171H.062A9.9 9.9 0 0 0 0 11.7a9.9 9.9 0 0 0 .062 1.187h5.653L.5 15.054a12.319 12.319 0 0 0 .906 2.2l5.216-2.171-3.982 4a11.48 11.48 0 0 0 1.687 1.687l4-4-2.174 5.217a10.884 10.884 0 0 0 2.2.906l2.171-5.216v5.653a9.9 9.9 0 0 0 1.187.062 9.9 9.9 0 0 0 1.189-.062v-5.653l2.171 5.216a12.318 12.318 0 0 0 2.2-.906L15.1 16.772l4 4a11.48 11.48 0 0 0 1.687-1.687l-4-4L22 17.256a10.884 10.884 0 0 0 .906-2.2l-5.231-2.171zM11.7 15.975a4.294 4.294 0 1 1 4.294-4.294 4.292 4.292 0 0 1-4.294 4.294z" data-name="Path 25958" style="fill:#ea642b"/></g></svg>