<svg xmlns="http://www.w3.org/2000/svg" width="153.974" height="27.543" viewBox="0 0 153.974 27.543">
    <g data-name="Group 54711">
        <path style="fill:#0ca88a" d="M0 0h27.543v27.543H0z"/>
        <path data-name="Rectangle 6018" transform="translate(31.608)" style="fill:#0ca88a" d="M0 0h27.543v27.543H0z"/>
        <path data-name="Rectangle 6019" transform="translate(63.216)" style="fill:#0ca88a" d="M0 0h27.543v27.543H0z"/>
        <path data-name="Rectangle 6020" transform="translate(94.823)" style="fill:#0ca88a" d="M0 0h27.543v27.543H0z"/>
        <path data-name="Rectangle 6021" transform="translate(140.202)" style="fill:#a8bfc4;opacity:.458" d="M0 0h13.771v27.543H0z"/>
        <path data-name="Rectangle 6022" transform="translate(126.431)" style="fill:#0ca88a" d="M0 0h27.542v27.543H0z"/>
        <path d="m24.032 30.1 4.185-1.061 1.749 5.389zm9.632-6.966H26.3L24.032 16.2l-2.265 6.937H14.4l5.962 4.3-2.262 6.937 5.962-4.3 3.669-2.637 5.934-4.3z" transform="translate(-10.272 -11.532)" style="fill:#fff"/>
        <path data-name="Path 71565" d="m128.032 30.1 4.185-1.061 1.749 5.389zm9.632-6.966H130.3l-2.268-6.934-2.265 6.937H118.4l5.962 4.3-2.262 6.937 5.962-4.3 3.669-2.637 5.934-4.3z" transform="translate(-82.69 -11.532)" style="fill:#fff"/>
        <path data-name="Path 71566" d="m232.032 30.1 4.185-1.061 1.749 5.389zm9.632-6.966H234.3l-2.268-6.934-2.265 6.937H222.4l5.962 4.3-2.262 6.937 5.962-4.3 3.669-2.637 5.934-4.3z" transform="translate(-155.108 -11.532)" style="fill:#fff"/>
        <path data-name="Path 71567" d="m336.032 30.1 4.185-1.061 1.749 5.389zm9.632-6.966H338.3l-2.268-6.934-2.265 6.937H326.4l5.962 4.3-2.262 6.937 5.962-4.3 3.669-2.637 5.934-4.3z" transform="translate(-227.527 -11.532)" style="fill:#fff"/>
        <path data-name="Path 71568" d="m440.032 30.1 4.185-1.061 1.749 5.389zm9.632-6.966H442.3l-2.268-6.934-2.265 6.937H430.4l5.962 4.3-2.262 6.937 5.962-4.3 3.669-2.637 5.934-4.3z" transform="translate(-299.945 -11.532)" style="fill:#fff"/>
    </g>
</svg>
