<svg xmlns="http://www.w3.org/2000/svg" width="56" height="56" viewBox="0 0 56 56">
    <g data-name="Group 87899">
        <path d="M15.379 1.05a5.648 5.648 0 0 1 3.737 1.438c.69-.205 2.691-1.2 2.691-1.2a4.671 4.671 0 0 1-.613 2.912 7.136 7.136 0 0 0 2.163-.327 5.368 5.368 0 0 1-2.163 3.794 16.352 16.352 0 0 1-1 5.718 15.6 15.6 0 0 1-3.315 5.354 13.825 13.825 0 0 1-4.409 3.115 13.777 13.777 0 0 1-5.614 1.167c-.358 0-.714-.014-1.48-.08a11.467 11.467 0 0 1-7.6-4.036 16.04 16.04 0 0 0 5.5-1.207c-1.221-.75-3.512-2.168-4.1-3.716a9.725 9.725 0 0 0 2.31-.333C.393 12.522-1.37 10.229-1.37 8.536a5.967 5.967 0 0 0 1.568 0A8.648 8.648 0 0 1-.479 5.63a6.4 6.4 0 0 1 .774-3.059c.19-.353.995-1.42.995-1.42s.736.946.979 1.264a13.7 13.7 0 0 0 1.784 1.907 10.968 10.968 0 0 0 2.03 1.416 11.189 11.189 0 0 0 3.5 1.241 5.965 5.965 0 0 1 5.796-5.929zm4.3 2.99a3.756 3.756 0 0 1-1.8.53 3.337 3.337 0 0 0-2.5-1.17 3.625 3.625 0 0 0-3.445 3.774 4.255 4.255 0 0 0 .082.885A1.177 1.177 0 0 1 10.8 9.482 13.474 13.474 0 0 1 4.944 7.8a13.889 13.889 0 0 1-3.3-2.95 7.558 7.558 0 0 0 2.1 5.6 12.575 12.575 0 0 1-1.539.433c.467 1.017 2.011 2.787 3.2 3-.565.973-1 1.374-1.148 1.4a5.519 5.519 0 0 0 3.146 1.4c-.492 1.045-2.694 3.249-4.503 3.277a14.353 14.353 0 0 0 3.96.707 11.261 11.261 0 0 0 8.322-3.554 13.224 13.224 0 0 0 2.807-4.541 13.946 13.946 0 0 0 .842-5.4 6.328 6.328 0 0 0 1.591-1.325 6.374 6.374 0 0 1-1.934 0 5.856 5.856 0 0 0 1.187-1.807z" transform="translate(17.223 16.949)" style="fill:#7e7ea9"/>
        <path data-name="Rectangle 7150" d="M16 1.4A14.6 14.6 0 0 0 1.4 16v24A14.6 14.6 0 0 0 16 54.6h24A14.6 14.6 0 0 0 54.6 40V16A14.6 14.6 0 0 0 40 1.4H16M16 0h24a16 16 0 0 1 16 16v24a16 16 0 0 1-16 16H16A16 16 0 0 1 0 40V16A16 16 0 0 1 16 0z" style="opacity:.8;fill:#7e7ea9"/>
    </g>
</svg>
